Coordinates
version=1
nRows=18
nColumns=63
inDegrees=yes

Units are S.I. units (second, meters, Newtons, ...)
If the header above contains a line with 'inDegrees', this indicates whether rotational values are in degrees (yes) or radians (no).

endheader
time	pelvis_tilt	pelvis_list	pelvis_rotation	pelvis_tx	pelvis_ty	pelvis_tz	hip_flexion_r	hip_adduction_r	hip_rotation_r	knee_angle_r	knee_angle_r_beta	ankle_angle_r	subtalar_angle_r	mtp_angle_r	hip_flexion_l	hip_adduction_l	hip_rotation_l	knee_angle_l	knee_angle_l_beta	ankle_angle_l	subtalar_angle_l	mtp_angle_l	L5_S1_Flex_Ext	L5_S1_Lat_Bending	L5_S1_axial_rotation	L4_L5_Flex_Ext	L4_L5_Lat_Bending	L4_L5_axial_rotation	L3_L4_Flex_Ext	L3_L4_Lat_Bending	L3_L4_axial_rotation	L2_L3_Flex_Ext	L2_L3_Lat_Bending	L2_L3_axial_rotation	L1_L2_Flex_Ext	L1_L2_Lat_Bending	L1_L2_axial_rotation	L1_T12_Flex_Ext	L1_T12_Lat_Bending	L1_T12_axial_rotation	Abs_r3	Abs_r2	Abs_r1	Abs_t1	Abs_t2	neck_flexion	neck_bending	neck_rotation	arm_flex_r	arm_add_r	arm_rot_r	elbow_flex_r	pro_sup_r	wrist_flex_r	wrist_dev_r	arm_flex_l	arm_add_l	arm_rot_l	elbow_flex_l	pro_sup_l	wrist_flex_l	wrist_dev_l
0.000000	-0.499598	-3.214822	91.526526	0.178691	0.986938	0.258317	-11.915107	-2.431743	7.958177	0.683524	0.011930	23.322520	-6.527957	0.000000	-10.839216	-1.600981	-10.574331	1.152830	0.020121	23.408473	15.213552	0.000000	0.276967	-0.433598	0.944001	0.514355	-0.576685	1.003001	0.455029	-1.054250	1.003001	0.316546	-1.054250	0.826000	0.257192	-0.884193	0.767000	0.158259	-0.671643	0.708000	1.978348	-4.904948	5.250248	0.000000	0.000000	19.704984	-2.101089	-22.377301	53.471115	-9.199793	77.813590	32.736756	83.413882	23.793333	16.590980	51.505112	-0.537617	56.275383	30.714785	85.134795	12.372188	-5.549089
0.016667	-0.512805	-2.996278	91.972016	0.178567	0.986850	0.257624	-12.233920	-2.265957	8.543898	0.631485	0.011022	22.681739	-8.043454	0.000000	-11.163810	-1.642072	-8.219164	1.122643	0.019594	23.195588	12.034146	0.000000	0.265769	-0.431613	0.828024	0.493559	-0.574046	0.879776	0.436631	-1.049425	0.879776	0.303747	-1.049425	0.724521	0.246793	-0.880146	0.672770	0.151860	-0.668569	0.621018	1.898359	-4.882496	4.605222	0.000000	0.000000	18.464239	-2.448868	-22.090772	55.049397	-9.894772	70.377578	35.031855	88.517318	24.676703	13.672913	51.226836	-0.831321	56.618781	30.742993	85.645163	11.672098	-4.825064
0.033333	-0.547943	-2.818699	92.387214	0.178459	0.986844	0.257071	-12.505473	-2.141694	8.970675	0.592535	0.010342	22.163726	-9.282763	0.000000	-11.412381	-1.664563	-6.368001	1.102404	0.019241	23.037317	9.630118	0.000000	0.255723	-0.433746	0.718549	0.474904	-0.576883	0.763458	0.420128	-1.054611	0.763458	0.292266	-1.054611	0.628730	0.237465	-0.884496	0.583821	0.146120	-0.671873	0.538912	1.826606	-4.906626	3.996353	0.000000	0.000000	17.383055	-2.649672	-21.797621	56.380826	-10.022864	67.588432	36.038884	91.624480	24.476955	10.517919	50.995304	-1.121855	56.863313	30.769502	86.025515	11.035860	-4.326334
0.050000	-0.601545	-2.679209	92.769226	0.178366	0.986910	0.256647	-12.731866	-2.055392	9.259273	0.565589	0.009871	21.756320	-10.271335	0.000000	-11.591554	-1.670218	-4.976716	1.090981	0.019041	22.927474	7.924838	0.000000	0.246786	-0.439340	0.616174	0.458305	-0.584322	0.654685	0.405444	-1.068211	0.654685	0.282051	-1.068211	0.539152	0.229165	-0.895902	0.500641	0.141013	-0.680538	0.462130	1.762765	-4.969902	3.426974	0.000000	0.000000	16.452824	-2.718630	-21.495205	57.484160	-9.652866	68.903377	35.906419	92.947947	23.326608	7.183821	50.807183	-1.406804	57.019731	30.794629	86.288198	10.463873	-4.025201
0.066667	-0.670150	-2.574931	93.115158	0.178288	0.987036	0.256343	-12.915197	-2.003486	9.430456	0.549563	0.009592	21.447362	-11.034618	0.000000	-11.707951	-1.660803	-4.001180	1.087239	0.018976	22.859875	6.841677	0.000000	0.238910	-0.447737	0.521499	0.443680	-0.595490	0.554093	0.392506	-1.088628	0.554093	0.273050	-1.088628	0.456312	0.221852	-0.913025	0.423718	0.136513	-0.693544	0.391124	1.706512	-5.064889	2.900421	0.000000	0.000000	15.664940	-2.670872	-21.180881	58.378156	-8.853572	73.779638	34.783035	92.700299	21.358180	3.728441	50.659138	-1.683751	57.098783	30.818691	86.445559	9.956538	-3.893967
0.083333	-0.750294	-2.502991	93.422117	0.178223	0.987214	0.256153	-13.057566	-1.982413	9.504990	0.543375	0.009484	21.224692	-11.598060	0.000000	-11.768196	-1.638079	-3.397265	1.090046	0.019025	22.828335	6.304006	0.000000	0.232052	-0.458280	0.435123	0.430943	-0.609512	0.462319	0.381238	-1.114261	0.462319	0.265212	-1.114261	0.380733	0.215483	-0.934524	0.353538	0.132594	-0.709875	0.326343	1.657522	-5.184151	2.420026	0.000000	0.000000	15.010796	-2.521525	-20.852003	59.081572	-7.693778	81.674437	32.817306	91.094116	18.704191	0.209603	50.547837	-1.950279	57.111220	30.842005	86.509946	9.514254	-3.904934
0.100000	-0.838512	-2.460511	93.687208	0.178171	0.987434	0.256065	-13.161073	-1.988609	9.503638	0.545939	0.009528	21.076150	-11.987110	0.000000	-11.778913	-1.603813	-3.120844	1.098267	0.019168	22.826668	6.235193	0.000000	0.226165	-0.470311	0.357647	0.420011	-0.625514	0.380000	0.371566	-1.143514	0.380000	0.258484	-1.143514	0.312941	0.210017	-0.959058	0.290588	0.129231	-0.728512	0.268235	1.615473	-5.320252	1.989126	0.000000	0.000000	14.481786	-2.285719	-20.505930	59.613166	-6.242279	92.045000	30.157808	88.341977	15.497158	-3.314872	50.469947	-2.203973	57.067792	30.864888	86.493706	9.137422	-4.030406
0.116667	-0.931341	-2.444617	93.907538	0.178132	0.987684	0.256073	-13.227816	-2.018509	9.447166	0.556172	0.009707	20.989575	-12.227218	0.000000	-11.746724	-1.559768	-3.127787	1.110769	0.019387	22.848689	6.558610	0.000000	0.221204	-0.483174	0.289669	0.410798	-0.642621	0.307774	0.363416	-1.174788	0.307774	0.252814	-1.174788	0.253461	0.205410	-0.985288	0.235356	0.126396	-0.748436	0.217252	1.580039	-5.465757	1.611053	0.000000	0.000000	14.069303	-1.978584	-20.140017	59.991695	-4.567872	104.348550	26.953117	84.656460	11.869600	-6.787161	50.422134	-2.442415	56.979249	30.887656	86.409188	8.826443	-4.242684
0.133333	-1.025317	-2.452433	94.080212	0.178104	0.987955	0.256166	-13.259896	-2.068551	9.356337	0.572992	0.010001	20.952808	-12.343833	0.000000	-11.678253	-1.507707	-3.373967	1.126419	0.019660	22.888214	7.197628	0.000000	0.217124	-0.496210	0.231789	0.403222	-0.659960	0.246276	0.356714	-1.206485	0.246276	0.248151	-1.206485	0.202816	0.201622	-1.011872	0.188329	0.124065	-0.768630	0.173842	1.550897	-5.613229	1.289144	0.000000	0.000000	13.764740	-1.615247	-19.751621	60.235916	-2.739351	118.042312	23.351807	80.250146	7.954036	-10.149442	50.401065	-2.663189	56.856342	30.910627	86.268738	8.581715	-4.514072
0.150000	-1.116977	-2.481082	94.202338	0.178087	0.988238	0.256336	-13.259411	-2.135170	9.251916	0.595312	0.010390	20.953689	-12.362402	0.000000	-11.580123	-1.449396	-3.815256	1.144082	0.019968	22.939058	8.075615	0.000000	0.213880	-0.508763	0.184607	0.397196	-0.676655	0.196145	0.351383	-1.237007	0.196145	0.244443	-1.237007	0.161531	0.198609	-1.037470	0.149993	0.122211	-0.788074	0.138456	1.527723	-5.755233	1.026731	0.000000	0.000000	13.559491	-1.210838	-19.338098	60.364589	-0.825512	132.583510	19.502454	75.335613	3.882985	-13.343892	50.403407	-2.863880	56.709821	30.934118	86.084705	8.403639	-4.816870
0.166667	-1.202857	-2.527690	94.271020	0.178080	0.988521	0.256575	-13.228461	-2.214802	9.154669	0.622051	0.010857	20.980059	-12.308375	0.000000	-11.458959	-1.386598	-4.407526	1.162625	0.020292	22.995035	9.115944	0.000000	0.211426	-0.520176	0.148722	0.392638	-0.691834	0.158018	0.347351	-1.264756	0.158018	0.241638	-1.264756	0.130132	0.196330	-1.060743	0.120837	0.120809	-0.805752	0.111542	1.510192	-5.884333	0.827149	0.000000	0.000000	13.444949	-0.780486	-18.896804	60.396469	1.104849	147.429368	15.553633	70.125442	-0.211035	-16.312689	50.425826	-3.042071	56.550435	30.958445	85.869436	8.292616	-5.123382
0.183333	-1.258213	-2.592452	94.262592	0.178077	0.988752	0.256855	-13.152246	-2.287644	9.144796	0.647811	0.011306	21.026195	-12.240547	0.000000	-11.330768	-1.332076	-4.909770	1.166033	0.020351	23.017064	9.956472	0.000000	0.209809	-0.525923	0.132028	0.389636	-0.699477	0.140280	0.344695	-1.278729	0.140280	0.239790	-1.278729	0.115525	0.194828	-1.072462	0.107273	0.119885	-0.814654	0.099021	1.498642	-5.949344	0.734301	0.000000	0.000000	13.492800	-0.345487	-18.386002	60.514212	2.684791	159.666616	12.247956	65.987905	-3.805234	-19.030753	50.449368	-3.139861	56.293376	30.993768	85.640576	8.212828	-5.296209
0.200000	-1.301834	-2.669456	94.189935	0.178126	0.988945	0.257161	-13.058712	-2.365604	9.238018	0.675712	0.011793	21.032133	-12.228918	0.000000	-11.194585	-1.279050	-5.507281	1.173471	0.020481	23.026397	10.803813	0.000000	0.210003	-0.530092	0.129769	0.389996	-0.705023	0.137880	0.345014	-1.288866	0.137880	0.240012	-1.288866	0.113548	0.195009	-1.080964	0.105438	0.119996	-0.821113	0.097327	1.500030	-5.996510	0.721739	0.000000	0.000000	13.566579	0.053321	-17.834528	60.538153	4.153621	171.291795	9.148131	61.740355	-7.088100	-21.222112	50.517104	-3.232823	56.144766	31.036203	85.416003	8.242318	-5.389239
0.216667	-1.358588	-2.755179	94.086556	0.178156	0.989136	0.257553	-12.948480	-2.469612	9.303476	0.705988	0.012322	21.022599	-12.151301	0.000000	-11.044524	-1.205576	-6.228429	1.193570	0.020832	23.022414	11.748246	0.000000	0.209919	-0.536759	0.137186	0.389841	-0.713890	0.145760	0.344877	-1.305077	0.145760	0.239917	-1.305077	0.120037	0.194931	-1.094560	0.111463	0.119948	-0.831440	0.102889	1.499434	-6.071930	0.762986	0.000000	0.000000	13.699564	0.439273	-17.377720	60.413127	5.499763	181.973164	6.352144	59.116304	-11.159665	-22.806384	50.621547	-3.284135	56.100927	31.019780	85.161956	8.259808	-5.495660
0.233333	-1.399057	-2.841232	93.912553	0.178202	0.989297	0.257962	-12.825516	-2.577853	9.430571	0.736808	0.012860	21.006302	-12.040958	0.000000	-10.902427	-1.134462	-7.065069	1.220775	0.021307	23.029247	12.729022	0.000000	0.210596	-0.540423	0.160834	0.391099	-0.718762	0.170886	0.345989	-1.313984	0.170886	0.240691	-1.313984	0.140730	0.195560	-1.102030	0.130678	0.120335	-0.837115	0.120626	1.504270	-6.113369	0.894511	0.000000	0.000000	13.842497	0.772187	-16.905962	60.166987	6.635168	191.336322	3.945846	56.142270	-14.218866	-23.630930	50.773473	-3.298118	56.223227	30.946014	84.984764	8.359547	-5.609146
0.250000	-1.408799	-2.922430	93.667998	0.178223	0.989425	0.258422	-12.689748	-2.674889	9.792715	0.763230	0.013321	20.918415	-12.155562	0.000000	-10.784139	-1.068120	-7.610174	1.223519	0.021354	22.974536	13.185167	0.000000	0.211176	-0.537329	0.191962	0.392175	-0.714648	0.203959	0.346941	-1.306462	0.203959	0.241353	-1.306462	0.167967	0.196098	-1.095721	0.155969	0.120666	-0.832323	0.143971	1.508409	-6.078374	1.067634	0.000000	0.000000	14.028137	1.058522	-16.316826	59.994553	7.543853	199.552396	1.917322	52.692378	-16.284617	-24.163140	50.953983	-3.328567	56.507992	30.870640	84.888980	8.500322	-5.745923
0.266667	-1.381526	-3.004332	93.328288	0.178242	0.989519	0.258903	-12.529200	-2.760479	10.286749	0.787510	0.013745	20.804599	-12.311790	0.000000	-10.682656	-1.010905	-8.123593	1.217577	0.021251	22.912299	13.438502	0.000000	0.212023	-0.527027	0.239403	0.393747	-0.700945	0.254365	0.348332	-1.281412	0.254365	0.242321	-1.281412	0.209477	0.196884	-1.074713	0.194515	0.121150	-0.816364	0.179552	1.514456	-5.961830	1.331485	0.000000	0.000000	14.252136	1.285121	-15.674759	59.730100	8.106722	205.514190	0.458568	48.881324	-17.172314	-23.923218	51.132746	-3.346247	56.835635	30.809957	84.958505	8.820340	-5.825462
0.283333	-1.335926	-3.063897	92.956223	0.178241	0.989636	0.259455	-12.372716	-2.835465	10.790842	0.808836	0.014117	20.698966	-12.421845	0.000000	-10.607607	-0.963268	-8.633370	1.215446	0.021214	22.869632	13.637651	0.000000	0.211847	-0.510794	0.273086	0.393420	-0.679356	0.290154	0.348043	-1.241944	0.290154	0.242120	-1.241944	0.238950	0.196721	-1.041611	0.221882	0.121049	-0.791220	0.204814	1.513200	-5.778204	1.518820	0.000000	0.000000	14.412853	1.507479	-14.805383	59.665212	8.612052	210.375068	-0.839215	44.910722	-17.814293	-24.421390	51.184582	-3.435355	56.835176	30.881573	85.354068	9.335527	-5.626233
